<?xml version="1.0" encoding="utf-8"?>
<!-- Generator: Adobe Illustrator 26.0.0, SVG Export Plug-In . SVG Version: 6.00 Build 0)  -->
<svg version="1.1" id="Layer_1" xmlns="http://www.w3.org/2000/svg" xmlns:xlink="http://www.w3.org/1999/xlink" x="0px" y="0px"
	 viewBox="0 0 69.6 69.6" style="enable-background:new 0 0 69.6 69.6;" xml:space="preserve">
<style type="text/css">
	.st0{clip-path:url(#SVGID_00000019672549560687839570000008609563424128625541_);fill:#233F94;}
	.st1{clip-path:url(#SVGID_00000019672549560687839570000008609563424128625541_);}
	
		.st2{clip-path:url(#SVGID_00000168828582545327834780000002182449179339212700_);fill:none;stroke:#233F94;stroke-width:0.2253;stroke-miterlimit:10;}
	.st3{fill:none;stroke:#233F94;stroke-width:2.2528;stroke-miterlimit:10;}
	.st4{fill:none;stroke:#233F94;stroke-width:2.3116;stroke-miterlimit:10;}
	.st5{fill:none;stroke:#233F94;stroke-width:1.8023;stroke-miterlimit:10;}
	.st6{fill:none;stroke:#233F94;stroke-width:0.5779;stroke-miterlimit:10;}
	
		.st7{clip-path:url(#SVGID_00000142857564383928299070000001400493096914389169_);fill:#233F94;stroke:#FFFFFF;stroke-width:0.5626;stroke-miterlimit:10;}
</style>
<g>
	<defs>
		<circle id="SVGID_1_" cx="34.8" cy="34.8" r="34.8"/>
	</defs>
	<clipPath id="SVGID_00000054983441747963951470000006727660895582126252_">
		<use xlink:href="#SVGID_1_"  style="overflow:visible;"/>
	</clipPath>
	<polygon style="clip-path:url(#SVGID_00000054983441747963951470000006727660895582126252_);fill:#233F94;" points="40.2,20.1 
		40.2,20.4 39,20.4 39,20.1 35.5,20.1 35.5,20.4 34.3,20.4 34.3,20.1 30.9,20.1 30.9,20.4 29.7,20.4 29.7,20.1 27.1,20.1 27.1,20.8 
		26.3,20.8 26.3,20.8 42.6,20.8 42.6,20.1 	"/>
	
		<rect x="26.3" y="17.5" style="clip-path:url(#SVGID_00000054983441747963951470000006727660895582126252_);fill:#233F94;" width="0.8" height="2.6"/>
	
		<rect x="26.3" y="20.1" style="clip-path:url(#SVGID_00000054983441747963951470000006727660895582126252_);fill:#233F94;" width="0.8" height="0.8"/>
	
		<rect x="25.9" y="25.3" style="clip-path:url(#SVGID_00000054983441747963951470000006727660895582126252_);fill:#233F94;" width="17.9" height="6.4"/>
	
		<rect x="25.1" y="37.1" style="clip-path:url(#SVGID_00000054983441747963951470000006727660895582126252_);fill:#233F94;" width="19.6" height="6.9"/>
	
		<rect x="31.4" y="45.2" style="clip-path:url(#SVGID_00000054983441747963951470000006727660895582126252_);fill:#233F94;" width="6.9" height="2.7"/>
	
		<rect x="31.4" y="33.1" style="clip-path:url(#SVGID_00000054983441747963951470000006727660895582126252_);fill:#233F94;" width="6.9" height="2.6"/>
	
		<rect x="31.4" y="22" style="clip-path:url(#SVGID_00000054983441747963951470000006727660895582126252_);fill:#233F94;" width="6.9" height="2.7"/>
	<path style="clip-path:url(#SVGID_00000054983441747963951470000006727660895582126252_);fill:#233F94;" d="M30.9,14.6h3.5v2.1
		h-3.5V14.6z M35.5,14.6H39v2.1h-3.5V14.6z M29.7,17.5V20h1.2v-2.6h3.5V20h1.2v-2.6H39V20h1.2v-2.6h2.4V20h0.8v-2.6v-0.8v0h-3.2
		v-2.1h3.1c0-4.4-3.7-7.9-8.3-7.9c-4.6,0-8.3,3.6-8.3,7.9h3.1v2.1h-2.6v0.8H29.7z"/>
	
		<rect x="39" y="20.1" style="clip-path:url(#SVGID_00000054983441747963951470000006727660895582126252_);fill:#233F94;" width="1.2" height="0.4"/>
	
		<rect x="42.6" y="20" style="clip-path:url(#SVGID_00000054983441747963951470000006727660895582126252_);fill:#233F94;" width="0.8" height="0.8"/>
	
		<rect x="34.3" y="20.1" style="clip-path:url(#SVGID_00000054983441747963951470000006727660895582126252_);fill:#233F94;" width="1.2" height="0.4"/>
	
		<rect x="29.7" y="20.1" style="clip-path:url(#SVGID_00000054983441747963951470000006727660895582126252_);fill:#233F94;" width="1.2" height="0.4"/>
	
		<rect x="26.3" y="16.7" style="clip-path:url(#SVGID_00000054983441747963951470000006727660895582126252_);fill:#233F94;" width="0.8" height="0.8"/>
	<path style="clip-path:url(#SVGID_00000054983441747963951470000006727660895582126252_);fill:#233F94;" d="M24.2,49.4v1.4V51
		C16,47,10.3,38.6,10.3,28.9c0-13.5,10.9-24.4,24.4-24.4s24.4,10.9,24.4,24.4c0,9.5-5.5,17.8-13.5,21.8l0,0v-1.3H24.2z M65.9,50.5
		c2.8-4.5,3.7-10,3.7-15.6C69.6,15.6,54.1,0,34.8,0S0,15.6,0,34.8C0,42.3,2.4,49.3,6.4,55c0.6-0.3,7.2-3.9,17.8-2.9
		c4.9,0.5,10.6,1.9,17,5.2l0.2,0.1c3.6,1.8,7.4,4.2,11.4,7.3C53.7,64.1,60.3,59.6,65.9,50.5z"/>
	<g style="clip-path:url(#SVGID_00000054983441747963951470000006727660895582126252_);">
		<g>
			<defs>
				
					<ellipse id="SVGID_00000181793932480244623090000011128579048279256723_" transform="matrix(4.029891e-02 -0.9992 0.9992 4.029891e-02 -56.5855 95.5945)" cx="21.5" cy="77.3" rx="22.8" ry="29.2"/>
			</defs>
			<clipPath id="SVGID_00000163769051937108246750000005422087371859419013_">
				<use xlink:href="#SVGID_00000181793932480244623090000011128579048279256723_"  style="overflow:visible;"/>
			</clipPath>
			
				<line style="clip-path:url(#SVGID_00000163769051937108246750000005422087371859419013_);fill:none;stroke:#233F94;stroke-width:0.2253;stroke-miterlimit:10;" x1="19.3" y1="100" x2="21.1" y2="54.4"/>
			
				<line style="clip-path:url(#SVGID_00000163769051937108246750000005422087371859419013_);fill:none;stroke:#233F94;stroke-width:0.2253;stroke-miterlimit:10;" x1="16.8" y1="99.9" x2="18.7" y2="54.3"/>
			
				<line style="clip-path:url(#SVGID_00000163769051937108246750000005422087371859419013_);fill:none;stroke:#233F94;stroke-width:0.2253;stroke-miterlimit:10;" x1="14.4" y1="99.8" x2="16.2" y2="54.2"/>
			
				<line style="clip-path:url(#SVGID_00000163769051937108246750000005422087371859419013_);fill:none;stroke:#233F94;stroke-width:0.2253;stroke-miterlimit:10;" x1="11.9" y1="99.7" x2="13.8" y2="54.1"/>
			
				<line style="clip-path:url(#SVGID_00000163769051937108246750000005422087371859419013_);fill:none;stroke:#233F94;stroke-width:0.2253;stroke-miterlimit:10;" x1="9.5" y1="99.6" x2="11.3" y2="54"/>
			
				<line style="clip-path:url(#SVGID_00000163769051937108246750000005422087371859419013_);fill:none;stroke:#233F94;stroke-width:0.2253;stroke-miterlimit:10;" x1="7" y1="99.5" x2="8.9" y2="53.9"/>
			
				<line style="clip-path:url(#SVGID_00000163769051937108246750000005422087371859419013_);fill:none;stroke:#233F94;stroke-width:0.2253;stroke-miterlimit:10;" x1="4.6" y1="99.4" x2="6.4" y2="53.8"/>
			
				<line style="clip-path:url(#SVGID_00000163769051937108246750000005422087371859419013_);fill:none;stroke:#233F94;stroke-width:0.2253;stroke-miterlimit:10;" x1="2.2" y1="99.3" x2="4" y2="53.7"/>
			
				<line style="clip-path:url(#SVGID_00000163769051937108246750000005422087371859419013_);fill:none;stroke:#233F94;stroke-width:0.2253;stroke-miterlimit:10;" x1="-0.3" y1="99.2" x2="1.6" y2="53.6"/>
			
				<line style="clip-path:url(#SVGID_00000163769051937108246750000005422087371859419013_);fill:none;stroke:#233F94;stroke-width:0.2253;stroke-miterlimit:10;" x1="-2.7" y1="99.1" x2="-0.9" y2="53.5"/>
			
				<line style="clip-path:url(#SVGID_00000163769051937108246750000005422087371859419013_);fill:none;stroke:#233F94;stroke-width:0.2253;stroke-miterlimit:10;" x1="43.6" y1="101" x2="45.4" y2="55.4"/>
			
				<line style="clip-path:url(#SVGID_00000163769051937108246750000005422087371859419013_);fill:none;stroke:#233F94;stroke-width:0.2253;stroke-miterlimit:10;" x1="41.1" y1="100.9" x2="43" y2="55.3"/>
			
				<line style="clip-path:url(#SVGID_00000163769051937108246750000005422087371859419013_);fill:none;stroke:#233F94;stroke-width:0.2253;stroke-miterlimit:10;" x1="38.7" y1="100.8" x2="40.5" y2="55.2"/>
			
				<line style="clip-path:url(#SVGID_00000163769051937108246750000005422087371859419013_);fill:none;stroke:#233F94;stroke-width:0.2253;stroke-miterlimit:10;" x1="36.2" y1="100.7" x2="38.1" y2="55.1"/>
			
				<line style="clip-path:url(#SVGID_00000163769051937108246750000005422087371859419013_);fill:none;stroke:#233F94;stroke-width:0.2253;stroke-miterlimit:10;" x1="33.8" y1="100.6" x2="35.6" y2="55"/>
			
				<line style="clip-path:url(#SVGID_00000163769051937108246750000005422087371859419013_);fill:none;stroke:#233F94;stroke-width:0.2253;stroke-miterlimit:10;" x1="31.4" y1="100.5" x2="33.2" y2="54.9"/>
			
				<line style="clip-path:url(#SVGID_00000163769051937108246750000005422087371859419013_);fill:none;stroke:#233F94;stroke-width:0.2253;stroke-miterlimit:10;" x1="28.9" y1="100.4" x2="30.7" y2="54.8"/>
			
				<line style="clip-path:url(#SVGID_00000163769051937108246750000005422087371859419013_);fill:none;stroke:#233F94;stroke-width:0.2253;stroke-miterlimit:10;" x1="26.5" y1="100.3" x2="28.3" y2="54.7"/>
			
				<line style="clip-path:url(#SVGID_00000163769051937108246750000005422087371859419013_);fill:none;stroke:#233F94;stroke-width:0.2253;stroke-miterlimit:10;" x1="24" y1="100.2" x2="25.9" y2="54.6"/>
			
				<line style="clip-path:url(#SVGID_00000163769051937108246750000005422087371859419013_);fill:none;stroke:#233F94;stroke-width:0.2253;stroke-miterlimit:10;" x1="21.6" y1="100.1" x2="23.4" y2="54.5"/>
			
				<line style="clip-path:url(#SVGID_00000163769051937108246750000005422087371859419013_);fill:none;stroke:#233F94;stroke-width:0.2253;stroke-miterlimit:10;" x1="-8.4" y1="74.9" x2="50.7" y2="77.3"/>
			
				<line style="clip-path:url(#SVGID_00000163769051937108246750000005422087371859419013_);fill:none;stroke:#233F94;stroke-width:0.2253;stroke-miterlimit:10;" x1="-8.3" y1="72.4" x2="50.8" y2="74.8"/>
			
				<line style="clip-path:url(#SVGID_00000163769051937108246750000005422087371859419013_);fill:none;stroke:#233F94;stroke-width:0.2253;stroke-miterlimit:10;" x1="-8.2" y1="70" x2="50.9" y2="72.4"/>
			
				<line style="clip-path:url(#SVGID_00000163769051937108246750000005422087371859419013_);fill:none;stroke:#233F94;stroke-width:0.2253;stroke-miterlimit:10;" x1="-8.1" y1="67.5" x2="51" y2="69.9"/>
			
				<line style="clip-path:url(#SVGID_00000163769051937108246750000005422087371859419013_);fill:none;stroke:#233F94;stroke-width:0.2253;stroke-miterlimit:10;" x1="-8" y1="65.1" x2="51.1" y2="67.5"/>
			
				<line style="clip-path:url(#SVGID_00000163769051937108246750000005422087371859419013_);fill:none;stroke:#233F94;stroke-width:0.2253;stroke-miterlimit:10;" x1="-7.9" y1="62.7" x2="51.2" y2="65"/>
			
				<line style="clip-path:url(#SVGID_00000163769051937108246750000005422087371859419013_);fill:none;stroke:#233F94;stroke-width:0.2253;stroke-miterlimit:10;" x1="-7.8" y1="60.2" x2="51.3" y2="62.6"/>
			
				<line style="clip-path:url(#SVGID_00000163769051937108246750000005422087371859419013_);fill:none;stroke:#233F94;stroke-width:0.2253;stroke-miterlimit:10;" x1="-7.7" y1="57.8" x2="51.4" y2="60.2"/>
			
				<line style="clip-path:url(#SVGID_00000163769051937108246750000005422087371859419013_);fill:none;stroke:#233F94;stroke-width:0.2253;stroke-miterlimit:10;" x1="-9.2" y1="94.3" x2="49.9" y2="96.7"/>
			
				<line style="clip-path:url(#SVGID_00000163769051937108246750000005422087371859419013_);fill:none;stroke:#233F94;stroke-width:0.2253;stroke-miterlimit:10;" x1="-9.1" y1="91.9" x2="50" y2="94.2"/>
			
				<line style="clip-path:url(#SVGID_00000163769051937108246750000005422087371859419013_);fill:none;stroke:#233F94;stroke-width:0.2253;stroke-miterlimit:10;" x1="-9" y1="89.4" x2="50.1" y2="91.8"/>
			
				<line style="clip-path:url(#SVGID_00000163769051937108246750000005422087371859419013_);fill:none;stroke:#233F94;stroke-width:0.2253;stroke-miterlimit:10;" x1="-8.9" y1="87" x2="50.2" y2="89.4"/>
			
				<line style="clip-path:url(#SVGID_00000163769051937108246750000005422087371859419013_);fill:none;stroke:#233F94;stroke-width:0.2253;stroke-miterlimit:10;" x1="-8.8" y1="84.5" x2="50.3" y2="86.9"/>
			
				<line style="clip-path:url(#SVGID_00000163769051937108246750000005422087371859419013_);fill:none;stroke:#233F94;stroke-width:0.2253;stroke-miterlimit:10;" x1="-8.7" y1="82.1" x2="50.4" y2="84.5"/>
			
				<line style="clip-path:url(#SVGID_00000163769051937108246750000005422087371859419013_);fill:none;stroke:#233F94;stroke-width:0.2253;stroke-miterlimit:10;" x1="-8.6" y1="79.6" x2="50.5" y2="82"/>
			
				<line style="clip-path:url(#SVGID_00000163769051937108246750000005422087371859419013_);fill:none;stroke:#233F94;stroke-width:0.2253;stroke-miterlimit:10;" x1="-8.5" y1="77.2" x2="50.6" y2="79.6"/>
			
				<use xlink:href="#SVGID_00000181793932480244623090000011128579048279256723_"  style="overflow:visible;fill:none;stroke:#233F94;stroke-width:2.2528;stroke-miterlimit:10;"/>
		</g>
		<path class="st3" d="M42.7,93.2c7.9-6.4,22.6-13.2,32.2-12.8"/>
		<path class="st3" d="M43.9,63c7.3,7,21.5,15,31.1,15.4"/>
		<path class="st4" d="M70.3,77.6"/>
		<path class="st5" d="M44.8,64.1"/>
		<path class="st6" d="M111.3,78l-0.2,5.7c0,0.3-0.2,0.5-0.5,0.5l-35.3-1.4c-0.3,0-0.5-0.2-0.5-0.5l0.2-5.7c0-0.3,0.2-0.5,0.5-0.5
			l35.3,1.4C111.1,77.5,111.3,77.7,111.3,78z"/>
		<path class="st6" d="M111.3,77.5l-0.3,6.7l1.6,0.5c0.3,0.1,0.6-0.1,0.7-0.5l0.3-6.6c0-0.3-0.3-0.6-0.6-0.5L111.3,77.5z"/>
	</g>
	<g style="clip-path:url(#SVGID_00000054983441747963951470000006727660895582126252_);">
		<defs>
			<circle id="SVGID_00000022530106135475512820000006558024199986981528_" cx="45.5" cy="58.9" r="7.1"/>
		</defs>
		<use xlink:href="#SVGID_00000022530106135475512820000006558024199986981528_"  style="overflow:visible;fill:#233F94;"/>
		<clipPath id="SVGID_00000126305235649387538570000014498570438337807288_">
			<use xlink:href="#SVGID_00000022530106135475512820000006558024199986981528_"  style="overflow:visible;"/>
		</clipPath>
		
			<circle style="clip-path:url(#SVGID_00000126305235649387538570000014498570438337807288_);fill:#233F94;stroke:#FFFFFF;stroke-width:0.5626;stroke-miterlimit:10;" cx="52.7" cy="65.7" r="7.3"/>
		
			<circle style="clip-path:url(#SVGID_00000126305235649387538570000014498570438337807288_);fill:#233F94;stroke:#FFFFFF;stroke-width:0.5626;stroke-miterlimit:10;" cx="37.9" cy="51.7" r="7.3"/>
		
			<use xlink:href="#SVGID_00000022530106135475512820000006558024199986981528_"  style="overflow:visible;fill:none;stroke:#FFFFFF;stroke-width:0.75;stroke-miterlimit:10;"/>
	</g>
</g>
</svg>
