<?xml version="1.0" encoding="utf-8"?>
<!-- Generator: Adobe Illustrator 26.0.0, SVG Export Plug-In . SVG Version: 6.00 Build 0)  -->
<svg version="1.1" xmlns="http://www.w3.org/2000/svg" xmlns:xlink="http://www.w3.org/1999/xlink" x="0px" y="0px"
	 viewBox="0 0 69.6 69.6" style="enable-background:new 0 0 69.6 69.6;" xml:space="preserve">
<style type="text/css">
	.st0{clip-path:url(#SVGID_00000029768078013140458960000002037740515430993320_);fill:#233F96;}
	
		.st1{opacity:0.5;clip-path:url(#SVGID_00000029768078013140458960000002037740515430993320_);fill:none;stroke:#233F96;stroke-width:1.8848;stroke-miterlimit:10;}
	
		.st2{clip-path:url(#SVGID_00000029768078013140458960000002037740515430993320_);fill:none;stroke:#233F96;stroke-width:2.0825;stroke-miterlimit:10;}
	
		.st3{clip-path:url(#SVGID_00000029768078013140458960000002037740515430993320_);fill:none;stroke:#233F96;stroke-width:1.6236;stroke-miterlimit:10;}
	.st4{clip-path:url(#SVGID_00000029768078013140458960000002037740515430993320_);}
	
		.st5{clip-path:url(#SVGID_00000181786307905728136750000011711965221487960974_);fill:none;stroke:#233F96;stroke-width:0.2444;stroke-miterlimit:10;}
	.st6{fill:none;stroke:#233F96;stroke-width:1.9551;stroke-miterlimit:10;}
</style>
<g id="Layer_1">
</g>
<g id="Layer_4">
</g>
<g id="raq_peq">
</g>
<g id="Layer_6">
</g>
<g id="raq_grd">
</g>
<g id="Layer_5">
	<g>
		<defs>
			<circle id="SVGID_1_" cx="34.8" cy="34.8" r="34.8"/>
		</defs>
		<clipPath id="SVGID_00000173871074699465329740000014555924676946008232_">
			<use xlink:href="#SVGID_1_"  style="overflow:visible;"/>
		</clipPath>
		
			<rect x="25.9" y="25.3" style="clip-path:url(#SVGID_00000173871074699465329740000014555924676946008232_);fill:#233F96;" width="17.9" height="6.4"/>
		
			<rect x="25.1" y="37.1" style="clip-path:url(#SVGID_00000173871074699465329740000014555924676946008232_);fill:#233F96;" width="19.6" height="6.9"/>
		
			<rect x="31.4" y="45.2" style="clip-path:url(#SVGID_00000173871074699465329740000014555924676946008232_);fill:#233F96;" width="6.9" height="2.7"/>
		
			<rect x="31.4" y="33.1" style="clip-path:url(#SVGID_00000173871074699465329740000014555924676946008232_);fill:#233F96;" width="6.9" height="2.6"/>
		
			<rect x="31.4" y="22" style="clip-path:url(#SVGID_00000173871074699465329740000014555924676946008232_);fill:#233F96;" width="6.9" height="2.7"/>
		<path style="clip-path:url(#SVGID_00000173871074699465329740000014555924676946008232_);fill:#233F96;" d="M26.3,20.8h16.3v0h0.8
			v-3.4v-0.8v0h-3.2v-2.1h3.1c0-4.4-3.7-7.9-8.3-7.9c-4.6,0-8.3,3.6-8.3,7.9h3.1v2.1h-2.6v0h-0.8v0.5v0.2v2.6v0.2L26.3,20.8
			L26.3,20.8L26.3,20.8z M40.2,17.5h2.4v2.6h-2.4V17.5z M35.5,14.6H39v2.1h-3.5V14.6z M35.5,17.5H39v3h0v-0.4h-3.5V17.5z M30.9,14.6
			h3.5v2.1h-3.5V14.6z M30.9,17.5h3.5l0,2.6h-3.5V17.5z M27.1,17.5h2.6l0,2.6h-2.6V17.5z"/>
		
			<path style="opacity:0.5;clip-path:url(#SVGID_00000173871074699465329740000014555924676946008232_);fill:none;stroke:#233F96;stroke-width:1.8848;stroke-miterlimit:10;" d="
			M34.6,54c-0.6-6.7,1.5-13.7,6.5-19c6.1-6.4,14.8-8.8,22.9-7.1"/>
		
			<path style="opacity:0.5;clip-path:url(#SVGID_00000173871074699465329740000014555924676946008232_);fill:none;stroke:#233F96;stroke-width:1.8848;stroke-miterlimit:10;" d="
			M33.3,2.3C33.9,9,31.8,16,26.8,21.4C21,27.4,13,29.9,5.3,28.7"/>
		<path style="clip-path:url(#SVGID_00000173871074699465329740000014555924676946008232_);fill:#233F96;" d="M36.2,58.1
			c3.4-2.8,7.5-5,12.1-6.3c5.8-1.7,11.8-1.7,17.1-0.3c2.7-4.9,4.2-10.6,4.2-16.6C69.6,15.6,54.1,0,34.8,0S0,15.6,0,34.8
			c0,6.1,1.6,11.8,4.3,16.8c0.7-0.2,1.4-0.3,2.1-0.5c8.1-1.5,17.1-0.1,25.2,4.1C33.2,56.1,34.7,57,36.2,58.1z M25.1,50.6
			c-2.3-1.1-4.6-2.5-6.5-4.4c-9.5-9-10-24-1-33.5c9-9.5,24-10,33.5-1c9.5,9,10,24,1,33.5c-2.2,2.3-4.7,4.1-7.4,5.3v-1.3H25.1V50.6z"
			/>
		
			<path style="clip-path:url(#SVGID_00000173871074699465329740000014555924676946008232_);fill:none;stroke:#233F96;stroke-width:2.0825;stroke-miterlimit:10;" d="
			M12.5,84.8"/>
		
			<path style="clip-path:url(#SVGID_00000173871074699465329740000014555924676946008232_);fill:none;stroke:#233F96;stroke-width:1.6236;stroke-miterlimit:10;" d="
			M37.6,89.4"/>
		<path style="clip-path:url(#SVGID_00000173871074699465329740000014555924676946008232_);fill:#233F96;" d="M47.6,97.5l0.1,0.2
			l0.2-0.1l-0.1-0.4C47.7,97.3,47.7,97.4,47.6,97.5z"/>
		<path style="clip-path:url(#SVGID_00000173871074699465329740000014555924676946008232_);fill:#233F96;" d="M37.7,59.2l-0.5-1.9
			L37,57.4l0.4,1.6C37.5,59,37.6,59.1,37.7,59.2z"/>
		<path style="clip-path:url(#SVGID_00000173871074699465329740000014555924676946008232_);fill:#233F96;" d="M49.2,94.9l0.6,2.2
			l0.2-0.1l-0.7-2.5C49.3,94.7,49.2,94.8,49.2,94.9z"/>
		<path style="clip-path:url(#SVGID_00000173871074699465329740000014555924676946008232_);fill:#233F96;" d="M70.4,55.1
			c-6.3-3.6-14.4-4.3-22.3-2.1c-4.2,1.2-8,3.2-11.1,5.6c0.6,0.5,1.3,1,1.9,1.5c2.8-2.1,6.1-3.8,9.9-4.9c2.8-0.8,5.6-1.2,8.3-1.2
			c4.3,0,8.5,1,12,3l2.2-1.4C70.9,55.4,70.6,55.2,70.4,55.1z"/>
		<path style="clip-path:url(#SVGID_00000173871074699465329740000014555924676946008232_);fill:#233F96;" d="M39.7,60.8
			c0.1,0.1,0.1,0.1,0.2,0.2l0.3-0.1l0.1,0.5c0.1,0.1,0.2,0.2,0.3,0.3l-0.2-0.8l1.9-0.5l0.5,2l-1.2,0.3c0.1,0.1,0.1,0.1,0.2,0.2
			l1.1-0.3l0.5,2l0,0c0.1,0.1,0.2,0.3,0.4,0.4l-0.1-0.3l1.9-0.5l0.5,2l-1.1,0.3c0,0.1,0.1,0.1,0.1,0.2l1.1-0.3l0.5,2l-0.3,0.1
			c0,0.1,0.1,0.1,0.1,0.2l0.3-0.1l0.2,0.8c0.1,0.2,0.2,0.4,0.4,0.6l-0.4-1.5l1.9-0.5l0.5,2l-1.8,0.5c0,0.1,0.1,0.1,0.1,0.2l1.7-0.5
			l0.1,0.5l0.2-0.1l-0.1-0.4l1.5-0.4l0.6-0.4l0,0l-0.5-2l1.8-0.5l0.4,1.5l0.2-0.1L53,66.5l1.9-0.5l0.2,0.8l0.2-0.1l-0.2-0.8l1.9-0.5
			l0.1,0.2l0.2-0.1l0-0.2l0.6-0.2l0.6-0.4l-1.2,0.4l-0.5-2l1.9-0.5l0.5,1.8l0.2-0.1l-0.5-1.7l1.9-0.5l0.3,1.2l0.2-0.1L60.7,62
			l1.9-0.5l0.1,0.5l0.2-0.1l-0.1-0.5l1.7-0.5l0.6-0.4l-0.2,0.1l-0.5-2l1.9-0.5l0.4,1.5l0.2-0.1L66.4,58l1.9-0.5l0.2,0.9l0.2-0.1
			l-0.2-0.8l1.9-0.5l0.1,0.3l0.2-0.1l0-0.2l-0.3-0.2l-1.9,0.5l-0.5-2l-0.2-0.1l-1.9,0.5l-0.3-1l-0.2-0.1l0.3,1.2l-1.9,0.5l-0.5-2
			l0.4-0.1l-0.4-0.1l-0.1,0l0,0L62.9,54l0,0.2l-1.9,0.5l-0.3-1.2l-0.2-0.1l0.3,1.3L59,55.3l-0.6-2.4l-0.2-0.1l0.7,2.5l-1.9,0.5
			L56,52.7h-0.2l0.9,3.3l-1.9,0.5l-1-3.8h-0.2l1,3.8l-1.9,0.5l-1-3.9l-0.2,0.1l1,3.9l-1.9,0.5l-1-3.9l-0.2,0.1l1,3.9l-1.8,0.5
			l-1-3.9l-0.2,0.1l1,3.9l-1.9,0.5l-1-3.9L45.3,55l1,3.9l-1.9,0.5l-1-3.9l-0.2,0.1l1,3.9L42.4,60l-1-3.9l-0.2,0.1l1,3.9l-1.9,0.5
			l-1-3.9l-0.2,0.1l1,3.9L39.7,60.8z M43.5,64.4l-0.5-2l1.9-0.5l0.5,2L43.5,64.4z M45.1,61.8l1.9-0.5l0.5,2l-1.9,0.5L45.1,61.8z
			 M59.9,59.7L58,60.2l-0.5-2l1.9-0.5L59.9,59.7z M59.6,57.7l1.9-0.5l0.5,2l-1.9,0.5L59.6,57.7z M57.8,60.3l-1.9,0.5l-0.5-2l1.9-0.5
			L57.8,60.3z M49.8,62.8l1.8-0.5l0.5,2l-1.8,0.5L49.8,62.8z M50.2,64.8l-1.9,0.5l-0.5-2l1.9-0.5L50.2,64.8z M51.8,62.2l1.9-0.5
			l0.5,2l-1.9,0.5L51.8,62.2z M53.9,61.6l1.9-0.5l0.5,2l-1.9,0.5L53.9,61.6z M55.8,60.9l-1.9,0.5l-0.5-2l1.9-0.5L55.8,60.9z
			 M53.7,61.5L51.8,62l-0.5-2l1.9-0.5L53.7,61.5z M51.6,62.1l-1.8,0.5l-0.5-2l1.8-0.5L51.6,62.1z M49.6,62.6l-1.9,0.5l-0.5-2
			l1.9-0.5L49.6,62.6z M45.7,64l1.9-0.5l0.5,2l-1.9,0.5L45.7,64z M46.8,68.1l-0.5-2l1.9-0.5l0.5,2L46.8,68.1z M48.3,65.5l1.9-0.5
			l0.5,2l-1.9,0.5L48.3,65.5z M51.3,69.1l-1.9,0.5l-0.5-2l1.9-0.5L51.3,69.1z M50.9,66.9l-0.5-2l1.8-0.5l0.5,2L50.9,66.9z
			 M52.9,66.3l-0.5-2l1.9-0.5l0.5,2L52.9,66.3z M56.9,65.2L55,65.7l-0.5-2l1.9-0.5L56.9,65.2z M56.5,63L56,61l1.9-0.5l0.5,2L56.5,63
			z M58.6,62.4l-0.5-2l1.9-0.5l0.5,2L58.6,62.4z M60.7,61.8l-0.5-2l1.9-0.5l0.5,2L60.7,61.8z M64.7,60.7l-1.9,0.5l-0.5-2l1.9-0.5
			L64.7,60.7z M67.7,55.3l0.5,2l-1.9,0.5l-0.5-2L67.7,55.3z M65.7,55.9l0.5,2l-1.9,0.5l-0.5-2L65.7,55.9z M64.1,58.5L62.2,59l-0.5-2
			l1.9-0.5L64.1,58.5z M63,54.4l0.5,2l-1.9,0.5l-0.5-2L63,54.4z M60.9,55l0.5,2l-1.9,0.5l-0.5-2L60.9,55z M58.8,55.6l0.5,2l-1.9,0.5
			l-0.5-2L58.8,55.6z M56.7,56.2l0.5,2l-1.9,0.5l-0.5-2L56.7,56.2z M54.7,56.7l0.5,2l-1.9,0.5l-0.5-2L54.7,56.7z M52.6,57.3l0.5,2
			l-1.9,0.5l-0.5-2L52.6,57.3z M50.5,57.9l0.5,2l-1.8,0.5l-0.5-2L50.5,57.9z M48.5,58.5l0.5,2L47.1,61l-0.5-2L48.5,58.5z M46.4,59.1
			l0.5,2l-1.9,0.5l-0.5-2L46.4,59.1z M44.3,59.7l0.5,2L43,62.2l-0.5-2L44.3,59.7z"/>
		<g style="clip-path:url(#SVGID_00000173871074699465329740000014555924676946008232_);">
			<g>
				<defs>
					
						<ellipse id="SVGID_00000084503987897158587130000009986945111804811440_" transform="matrix(0.4591 -0.8884 0.8884 0.4591 -60.0589 60.2382)" cx="19.4" cy="79.4" rx="24.8" ry="31.7"/>
				</defs>
				<clipPath id="SVGID_00000065046282191798486820000015093670485047948221_">
					<use xlink:href="#SVGID_00000084503987897158587130000009986945111804811440_"  style="overflow:visible;"/>
				</clipPath>
				
					<line style="clip-path:url(#SVGID_00000065046282191798486820000015093670485047948221_);fill:none;stroke:#233F96;stroke-width:0.2444;stroke-miterlimit:10;" x1="9.7" y1="100.8" x2="32.4" y2="56.8"/>
				
					<line style="clip-path:url(#SVGID_00000065046282191798486820000015093670485047948221_);fill:none;stroke:#233F96;stroke-width:0.2444;stroke-miterlimit:10;" x1="7.3" y1="99.5" x2="30" y2="55.6"/>
				
					<line style="clip-path:url(#SVGID_00000065046282191798486820000015093670485047948221_);fill:none;stroke:#233F96;stroke-width:0.2444;stroke-miterlimit:10;" x1="5" y1="98.3" x2="27.7" y2="54.4"/>
				
					<line style="clip-path:url(#SVGID_00000065046282191798486820000015093670485047948221_);fill:none;stroke:#233F96;stroke-width:0.2444;stroke-miterlimit:10;" x1="2.6" y1="97.1" x2="25.3" y2="53.2"/>
				
					<line style="clip-path:url(#SVGID_00000065046282191798486820000015093670485047948221_);fill:none;stroke:#233F96;stroke-width:0.2444;stroke-miterlimit:10;" x1="0.3" y1="95.9" x2="23" y2="51.9"/>
				
					<line style="clip-path:url(#SVGID_00000065046282191798486820000015093670485047948221_);fill:none;stroke:#233F96;stroke-width:0.2444;stroke-miterlimit:10;" x1="-2.1" y1="94.7" x2="20.6" y2="50.7"/>
				
					<line style="clip-path:url(#SVGID_00000065046282191798486820000015093670485047948221_);fill:none;stroke:#233F96;stroke-width:0.2444;stroke-miterlimit:10;" x1="-4.5" y1="93.5" x2="18.3" y2="49.5"/>
				
					<line style="clip-path:url(#SVGID_00000065046282191798486820000015093670485047948221_);fill:none;stroke:#233F96;stroke-width:0.2444;stroke-miterlimit:10;" x1="-6.8" y1="92.2" x2="15.9" y2="48.3"/>
				
					<line style="clip-path:url(#SVGID_00000065046282191798486820000015093670485047948221_);fill:none;stroke:#233F96;stroke-width:0.2444;stroke-miterlimit:10;" x1="-9.2" y1="91" x2="13.5" y2="47.1"/>
				
					<line style="clip-path:url(#SVGID_00000065046282191798486820000015093670485047948221_);fill:none;stroke:#233F96;stroke-width:0.2444;stroke-miterlimit:10;" x1="-11.5" y1="89.8" x2="11.2" y2="45.9"/>
				
					<line style="clip-path:url(#SVGID_00000065046282191798486820000015093670485047948221_);fill:none;stroke:#233F96;stroke-width:0.2444;stroke-miterlimit:10;" x1="33.1" y1="112.9" x2="55.8" y2="68.9"/>
				
					<line style="clip-path:url(#SVGID_00000065046282191798486820000015093670485047948221_);fill:none;stroke:#233F96;stroke-width:0.2444;stroke-miterlimit:10;" x1="30.8" y1="111.7" x2="53.5" y2="67.7"/>
				
					<line style="clip-path:url(#SVGID_00000065046282191798486820000015093670485047948221_);fill:none;stroke:#233F96;stroke-width:0.2444;stroke-miterlimit:10;" x1="28.4" y1="110.4" x2="51.1" y2="66.5"/>
				
					<line style="clip-path:url(#SVGID_00000065046282191798486820000015093670485047948221_);fill:none;stroke:#233F96;stroke-width:0.2444;stroke-miterlimit:10;" x1="26.1" y1="109.2" x2="48.8" y2="65.3"/>
				
					<line style="clip-path:url(#SVGID_00000065046282191798486820000015093670485047948221_);fill:none;stroke:#233F96;stroke-width:0.2444;stroke-miterlimit:10;" x1="23.7" y1="108" x2="46.4" y2="64.1"/>
				
					<line style="clip-path:url(#SVGID_00000065046282191798486820000015093670485047948221_);fill:none;stroke:#233F96;stroke-width:0.2444;stroke-miterlimit:10;" x1="21.3" y1="106.8" x2="44.1" y2="62.8"/>
				
					<line style="clip-path:url(#SVGID_00000065046282191798486820000015093670485047948221_);fill:none;stroke:#233F96;stroke-width:0.2444;stroke-miterlimit:10;" x1="19" y1="105.6" x2="41.7" y2="61.6"/>
				
					<line style="clip-path:url(#SVGID_00000065046282191798486820000015093670485047948221_);fill:none;stroke:#233F96;stroke-width:0.2444;stroke-miterlimit:10;" x1="16.6" y1="104.4" x2="39.3" y2="60.4"/>
				
					<line style="clip-path:url(#SVGID_00000065046282191798486820000015093670485047948221_);fill:none;stroke:#233F96;stroke-width:0.2444;stroke-miterlimit:10;" x1="14.3" y1="103.1" x2="37" y2="59.2"/>
				
					<line style="clip-path:url(#SVGID_00000065046282191798486820000015093670485047948221_);fill:none;stroke:#233F96;stroke-width:0.2444;stroke-miterlimit:10;" x1="11.9" y1="101.9" x2="34.6" y2="58"/>
				
					<line style="clip-path:url(#SVGID_00000065046282191798486820000015093670485047948221_);fill:none;stroke:#233F96;stroke-width:0.2444;stroke-miterlimit:10;" x1="-6" y1="63.4" x2="51" y2="92.9"/>
				
					<line style="clip-path:url(#SVGID_00000065046282191798486820000015093670485047948221_);fill:none;stroke:#233F96;stroke-width:0.2444;stroke-miterlimit:10;" x1="-4.8" y1="61" x2="52.2" y2="90.5"/>
				
					<line style="clip-path:url(#SVGID_00000065046282191798486820000015093670485047948221_);fill:none;stroke:#233F96;stroke-width:0.2444;stroke-miterlimit:10;" x1="-3.6" y1="58.7" x2="53.4" y2="88.1"/>
				
					<line style="clip-path:url(#SVGID_00000065046282191798486820000015093670485047948221_);fill:none;stroke:#233F96;stroke-width:0.2444;stroke-miterlimit:10;" x1="-2.4" y1="56.3" x2="54.7" y2="85.8"/>
				
					<line style="clip-path:url(#SVGID_00000065046282191798486820000015093670485047948221_);fill:none;stroke:#233F96;stroke-width:0.2444;stroke-miterlimit:10;" x1="-1.2" y1="54" x2="55.9" y2="83.4"/>
				
					<line style="clip-path:url(#SVGID_00000065046282191798486820000015093670485047948221_);fill:none;stroke:#233F96;stroke-width:0.2444;stroke-miterlimit:10;" x1="0.1" y1="51.6" x2="57.1" y2="81.1"/>
				
					<line style="clip-path:url(#SVGID_00000065046282191798486820000015093670485047948221_);fill:none;stroke:#233F96;stroke-width:0.2444;stroke-miterlimit:10;" x1="1.3" y1="49.2" x2="58.3" y2="78.7"/>
				
					<line style="clip-path:url(#SVGID_00000065046282191798486820000015093670485047948221_);fill:none;stroke:#233F96;stroke-width:0.2444;stroke-miterlimit:10;" x1="2.5" y1="46.9" x2="59.5" y2="76.4"/>
				
					<line style="clip-path:url(#SVGID_00000065046282191798486820000015093670485047948221_);fill:none;stroke:#233F96;stroke-width:0.2444;stroke-miterlimit:10;" x1="-15.7" y1="82.1" x2="41.3" y2="111.6"/>
				
					<line style="clip-path:url(#SVGID_00000065046282191798486820000015093670485047948221_);fill:none;stroke:#233F96;stroke-width:0.2444;stroke-miterlimit:10;" x1="-14.5" y1="79.8" x2="42.5" y2="109.2"/>
				
					<line style="clip-path:url(#SVGID_00000065046282191798486820000015093670485047948221_);fill:none;stroke:#233F96;stroke-width:0.2444;stroke-miterlimit:10;" x1="-13.3" y1="77.4" x2="43.8" y2="106.9"/>
				
					<line style="clip-path:url(#SVGID_00000065046282191798486820000015093670485047948221_);fill:none;stroke:#233F96;stroke-width:0.2444;stroke-miterlimit:10;" x1="-12.1" y1="75" x2="45" y2="104.5"/>
				
					<line style="clip-path:url(#SVGID_00000065046282191798486820000015093670485047948221_);fill:none;stroke:#233F96;stroke-width:0.2444;stroke-miterlimit:10;" x1="-10.8" y1="72.7" x2="46.2" y2="102.2"/>
				
					<line style="clip-path:url(#SVGID_00000065046282191798486820000015093670485047948221_);fill:none;stroke:#233F96;stroke-width:0.2444;stroke-miterlimit:10;" x1="-9.6" y1="70.3" x2="47.4" y2="99.8"/>
				
					<line style="clip-path:url(#SVGID_00000065046282191798486820000015093670485047948221_);fill:none;stroke:#233F96;stroke-width:0.2444;stroke-miterlimit:10;" x1="-8.4" y1="68" x2="48.6" y2="97.5"/>
				
					<line style="clip-path:url(#SVGID_00000065046282191798486820000015093670485047948221_);fill:none;stroke:#233F96;stroke-width:0.2444;stroke-miterlimit:10;" x1="-7.2" y1="65.6" x2="49.9" y2="95.1"/>
				
					<use xlink:href="#SVGID_00000084503987897158587130000009986945111804811440_"  style="overflow:visible;fill:none;stroke:#233F96;stroke-width:2.4439;stroke-miterlimit:10;"/>
			</g>
			<path class="st6" d="M48.7,77.5"/>
		</g>
	</g>
</g>
</svg>
